HIERARCHY
ROOT Hips
{
	OFFSET 0.000000 0.000000 0.000000
	CHANNELS 6 Xposition Yposition Zposition Xrotation Yrotation Zrotation
	JOINT Chest
	{
		OFFSET 0.000000 0.009282 11.569106
		CHANNELS 3 Xrotation Yrotation Zrotation
		JOINT Chest2
		{
			OFFSET 0.000000 -0.016863 9.269641
			CHANNELS 3 Xrotation Yrotation Zrotation
			JOINT Chest3
			{
				OFFSET 0.000000 0.000000 8.374491
				CHANNELS 3 Xrotation Yrotation Zrotation
				JOINT Chest4
				{
					OFFSET 0.000000 0.000000 8.374493
					CHANNELS 3 Xrotation Yrotation Zrotation
					JOINT Neck
					{
						OFFSET 0.000000 -0.000001 12.152554
						CHANNELS 3 Xrotation Yrotation Zrotation
						JOINT Head
						{
							OFFSET 0.000000 -0.040100 7.802319
							CHANNELS 3 Xrotation Yrotation Zrotation
							End Site
							{
								OFFSET 0.000000 -0.020946 14.853096
							}
						}
					}
					JOINT RightCollar
					{
						OFFSET -2.894404 0.000000 6.791374
						CHANNELS 3 Xrotation Yrotation Zrotation
						JOINT RightShoulder
						{
							OFFSET -13.574684 0.000000 0.000000
							CHANNELS 3 Xrotation Yrotation Zrotation
							JOINT RightElbow
							{
								OFFSET -23.923903 0.000000 0.000000
								CHANNELS 3 Xrotation Yrotation Zrotation
								JOINT RightWrist
								{
									OFFSET -19.846718 -0.012765 0.000000
									CHANNELS 3 Xrotation Yrotation Zrotation
									End Site
									{
										OFFSET -14.973145 0.000000 0.000000
									}
								}
							}
						}
					}
					JOINT LeftCollar
					{
						OFFSET 2.894404 0.000000 6.791374
						CHANNELS 3 Xrotation Yrotation Zrotation
						JOINT LeftShoulder
						{
							OFFSET 13.574684 0.000000 0.000000
							CHANNELS 3 Xrotation Yrotation Zrotation
							JOINT LeftElbow
							{
								OFFSET 23.923903 0.000000 0.000000
								CHANNELS 3 Xrotation Yrotation Zrotation
								JOINT LeftWrist
								{
									OFFSET 19.846718 -0.012765 0.000000
									CHANNELS 3 Xrotation Yrotation Zrotation
									End Site
									{
										OFFSET 14.973145 0.000000 0.000000
									}
								}
							}
						}
					}
				}
			}
		}
	}
	JOINT RightHip
	{
		OFFSET -9.469263 -0.004642 0.045487
		CHANNELS 3 Xrotation Yrotation Zrotation
		JOINT RightKnee
		{
			OFFSET 0.000000 -0.002666 -40.478676
			CHANNELS 3 Xrotation Yrotation Zrotation
			JOINT RightAnkle
			{
				OFFSET 0.000000 -0.049110 -35.224068
				CHANNELS 3 Xrotation Yrotation Zrotation
				JOINT RightToe
				{
					OFFSET 0.000000 -12.539530 -6.151390
					CHANNELS 3 Xrotation Yrotation Zrotation
					End Site
					{
						OFFSET 0.000000 -5.044995 -1.291870
					}
				}
			}
		}
	}
	JOINT LeftHip
	{
		OFFSET 9.469263 -0.004642 0.045487
		CHANNELS 3 Xrotation Yrotation Zrotation
		JOINT LeftKnee
		{
			OFFSET 0.000000 -0.002666 -40.478676
			CHANNELS 3 Xrotation Yrotation Zrotation
			JOINT LeftAnkle
			{
				OFFSET 0.000000 -0.049110 -35.224068
				CHANNELS 3 Xrotation Yrotation Zrotation
				JOINT LeftToe
				{
					OFFSET 0.000000 -12.539530 -6.151390
					CHANNELS 3 Xrotation Yrotation Zrotation
					End Site
					{
						OFFSET 0.000000 -5.044995 -1.291870
					}
				}
			}
		}
	}
}
MOTION
Frames: 8
Frame Time: 0.016667
-10.387976 -4.714451 82.913597 5.913202 6.986881 -123.827341 5.969856 -0.758601 -2.761077 2.660761 -0.301537 -1.156222 2.660761 -0.301538 -1.156217 1.996145 -0.221125 -0.868498 24.891275 -2.030188 -10.485524 10.330913 -1.268533 -19.695749 -0.166257 1.478796 4.452030 34.174411 -45.063676 68.082759 37.406996 6.991880 -9.928305 -20.768630 44.377645 66.198118 0.969740 11.456009 -10.154393 40.621778 55.070470 -82.628787 37.298598 72.044405 -71.031488 -58.637666 -26.150276 -32.147795 6.929563 -0.363070 4.432530 8.278780 0.269592 1.155102 -6.186077 -1.565032 5.600893 0.076147 0.133212 -0.003935 12.130319 0.014411 4.521820 4.226474 0.168948 9.196513 -7.612452 -0.232890 -0.579839 -0.074530 -0.047428 0.003741 
-10.416492 -4.717938 82.915459 5.956263 6.920817 -124.108062 5.904218 -0.824891 -2.877639 2.632722 -0.329010 -1.205501 2.632724 -0.329011 -1.205501 1.975196 -0.241571 -0.905560 24.840952 -1.882743 -10.589203 10.267609 -0.969461 -19.852320 -0.201760 1.557699 4.635012 33.693074 -44.934056 67.567455 37.533109 6.964350 -9.782061 -20.540131 44.246000 65.987865 0.903916 11.478145 -10.086923 41.060454 55.033744 -83.172013 37.577577 72.279671 -71.695485 -59.357841 -24.345767 -30.214599 6.925367 -0.405132 4.516885 8.194257 0.350377 1.244935 -6.129092 -1.657915 5.675596 0.079465 0.133496 -0.005480 12.182789 0.022209 4.685161 4.150467 0.169878 9.312769 -7.618238 -0.229879 -0.564996 -0.078610 -0.044734 0.003795 
-10.444700 -4.721968 82.916573 5.998930 6.855115 -124.374138 5.854357 -0.892911 -3.003350 2.611147 -0.357939 -1.259088 2.611148 -0.357939 -1.259087 1.959101 -0.263081 -0.945861 24.769818 -1.731672 -10.676420 10.165388 -0.664307 -19.978384 -0.243014 1.659703 4.793592 33.182480 -44.840834 67.099580 37.741252 6.897820 -9.641336 -20.377244 44.125850 65.848706 0.794957 11.512190 -10.005535 41.466464 55.092115 -83.677549 37.418344 72.575883 -71.792801 -59.977114 -22.308006 -27.927054 6.921920 -0.444929 4.580788 8.112505 0.432229 1.322860 -6.075199 -1.757747 5.824095 0.083344 0.134693 -0.007635 12.227014 0.024483 4.845170 4.088338 0.175386 9.406933 -7.632634 -0.231721 -0.543736 -0.079987 -0.041554 0.004585 
-10.475539 -4.727898 82.917297 6.039164 6.787791 -124.622047 5.828834 -0.963951 -3.143104 2.599983 -0.388982 -1.318888 2.599983 -0.388982 -1.318892 1.950829 -0.286133 -0.990842 24.671214 -1.572554 -10.746334 10.012430 -0.344152 -20.071245 -0.381229 1.785390 4.920501 32.793862 -44.730410 66.760448 38.017434 6.852021 -9.555591 -20.196693 43.969353 65.693552 0.619092 11.547750 -9.919498 41.912920 55.214047 -84.196200 37.065982 72.813628 -71.686312 -60.251742 -20.517581 -25.523812 6.922984 -0.481505 4.623163 8.021358 0.503066 1.408365 -6.021769 -1.848784 5.953626 0.089166 0.134923 -0.011361 12.262876 0.023384 4.986561 4.036475 0.186670 9.492741 -7.651878 -0.240212 -0.515309 -0.081555 -0.038544 0.006399 
-10.508911 -4.738212 82.919067 6.076307 6.720294 -124.858617 5.779197 -1.040286 -3.290867 2.578856 -0.422830 -1.381955 2.578856 -0.422830 -1.381963 1.935101 -0.311299 -1.038265 24.588128 -1.397468 -10.808598 9.889936 0.001178 -20.145909 -0.456929 1.949043 5.033656 32.453265 -44.575901 66.490785 38.255521 6.829244 -9.453134 -19.890904 43.784470 65.413186 0.479112 11.588852 -9.833360 42.481844 55.321145 -84.785973 36.186865 72.811333 -71.177579 -59.966247 -18.982199 -22.981176 6.928976 -0.512777 4.664321 7.917422 0.567273 1.502218 -5.962365 -1.936959 6.010659 0.093646 0.135597 -0.015399 12.290801 0.026858 5.096778 3.992468 0.195880 9.567282 -7.668830 -0.256978 -0.463707 -0.086881 -0.033930 0.007635 
-10.541039 -4.752356 82.922455 6.112223 6.656984 -125.095625 5.700307 -1.095860 -3.420260 2.545578 -0.447007 -1.436989 2.545579 -0.447007 -1.436990 1.910237 -0.329279 -1.079620 24.539661 -1.235148 -10.863144 9.828888 0.316407 -20.208844 -0.463695 2.081154 5.103379 32.169515 -44.370039 66.277772 38.434543 6.811848 -9.358161 -19.647435 43.640370 65.224325 0.414550 11.582281 -9.757268 43.180876 55.359380 -85.526912 34.452079 72.571163 -69.881865 -59.834732 -17.311871 -20.478384 6.933919 -0.531771 4.719739 7.818336 0.627279 1.591874 -5.902180 -2.032141 6.115701 0.095456 0.137085 -0.017532 12.320873 0.038107 5.185694 3.943315 0.200633 9.650477 -7.675061 -0.278936 -0.407224 -0.096257 -0.027086 0.008746 
-10.571329 -4.773668 82.926331 6.144208 6.600787 -125.333179 5.626720 -1.144104 -3.560917 2.515030 -0.466291 -1.498412 2.515030 -0.466291 -1.498406 1.887418 -0.343561 -1.125740 24.495688 -1.069791 -10.896717 9.774626 0.631831 -20.232574 -0.489994 2.188049 5.227453 31.931729 -44.149243 66.079191 38.572462 6.822442 -9.271684 -19.520257 43.506666 65.113594 0.383937 11.574577 -9.608910 43.885588 55.394026 -86.411769 32.055365 72.278510 -67.909620 -59.893027 -15.591671 -17.755611 6.929971 -0.544459 4.804843 7.735676 0.677983 1.657184 -5.847109 -2.119526 6.186673 0.097549 0.136661 -0.020981 12.352810 0.061002 5.258543 3.887856 0.202948 9.739419 -7.671267 -0.304520 -0.345234 -0.107323 -0.021916 0.012101 
-10.598293 -4.793218 82.929680 6.180242 6.560263 -125.564681 5.549133 -1.195631 -3.713406 2.481624 -0.485538 -1.563884 2.481624 -0.485538 -1.563894 1.862463 -0.357813 -1.174911 24.458060 -0.893908 -10.919446 9.732504 0.963074 -20.233942 -0.528290 2.298262 5.378137 31.690312 -43.960218 65.866376 38.747650 6.803810 -9.174596 -19.370171 43.413768 64.957729 0.395057 11.606755 -9.394513 44.516909 55.349285 -87.354978 29.186843 71.978931 -65.439284 -59.586406 -13.849178 -14.843989 6.947914 -0.554486 4.886663 7.641912 0.740261 1.713188 -5.790793 -2.210896 6.288343 0.101849 0.131017 -0.020077 12.399078 0.084134 5.313668 3.829200 0.209337 9.862016 -7.663734 -0.326632 -0.309100 -0.117245 -0.018373 0.014040 
